<?xml version="1.0" encoding="utf-8"?>
<!-- Generator: Adobe Illustrator 21.0.0, SVG Export Plug-In . SVG Version: 6.00 Build 0)  -->
<svg version="1.1" id="Layer_1" xmlns="http://www.w3.org/2000/svg" xmlns:xlink="http://www.w3.org/1999/xlink" x="0px" y="0px"
	 viewBox="0 0 640 480" style="enable-background:new 0 0 640 480;" xml:space="preserve">
<style type="text/css">
	.st0{fill:#FFB2FF;}
	.st1{fill:#434351;}
	.st2{fill:none;}
	.st3{enable-background:new    ;}
	.st4{font-family:'ArialMT';}
	.st5{font-size:75.7295px;}
</style>
<g>
	<path class="st0" d="M511.2,259.7c-6.2,19-16.7,36.5-31.5,50.1c-16.7,15.5-37.3,26-54.8,40.6c-8.9,7.4-16.5,15.9-23.7,24.9
		c-7.4,8.9-14.6,18.3-23.3,25.8c-15.5,13.6-35,21.7-55.1,25.4c-20.8,3.7-42.1,2.9-62.7-1c-22.7-4.3-44.9-12.4-63.9-25.6
		c-17.3-12-31.8-28.5-40.4-48c-8.2-18.6-9.7-39.4-5.4-59.2c4.5-19.6,14.2-38.1,27.6-53.2c6.8-7.8,14.4-14.6,22.7-20.4
		c8.9-6.2,18.4-11.7,27.8-17.1c9.3-5.4,18.6-11.1,27.2-17.7c8-6.4,15-13.8,20.8-22.1c10.9-15.7,18.4-33.4,29.3-48.9
		c5.2-7.4,11.3-14.2,18.6-19.6c5.8-4.3,12.6-7.4,19.6-9.5c17.1-6.2,35.9-6,53.6-2.7c19.8,3.9,38.6,12.2,55.3,23.5
		c16.3,11.1,30.7,25,41.7,41.4c11.1,16.5,18.6,35.3,21.4,55.1C519,220.6,517.2,240.8,511.2,259.7z"/>
	<g>
		<g>
			<path class="st1" d="M328.9,415.4c-89.1,0-161.8-72.6-161.8-161.8S239.7,91.9,328.9,91.9s161.8,72.6,161.8,161.8
				C490.6,343,418.2,415.4,328.9,415.4z M328.9,95.8c-87,0-157.9,70.9-157.9,157.9s70.9,157.9,157.9,157.9s157.9-70.9,157.9-157.9
				C486.7,166.7,416.1,95.8,328.9,95.8z"/>
		</g>
		<g>
			<path class="st1" d="M328.9,399.1c-80.2,0-145.2-65.2-145.2-145.2c0-80.2,65.2-145.2,145.2-145.2c80.2,0,145.2,65.2,145.2,145.2
				C474.3,333.8,409.1,399.1,328.9,399.1z M328.9,109.8c-79.4,0-143.9,64.5-143.9,143.9s64.5,143.9,143.9,143.9
				s143.9-64.5,143.9-143.9C472.8,174.4,408.3,109.8,328.9,109.8z"/>
		</g>
		<path id="SVGID_x5F_1_x5F_" class="st2" d="M446.1,253.6c0,64.7-52.4,117.1-117.1,117.1S212,318.3,212,253.6
			s52.4-117.1,117.1-117.1S446.1,189,446.1,253.6z"/>
		<text transform="matrix(1 0 0 1 -288.8152 -212.7748)" class="st4" style="font-size:23.3014px;">  </text>
		<text transform="matrix(1 0 0 1 -288.8152 -212.7748)" class="st4" style="font-size:23.3014px;"> </text>
		<g>
			<text transform="matrix(1 0 0 1 259.0398 229.6491)" class="st1 st4 st5">DDC</text>
			<text transform="matrix(1 0 0 1 251.9402 324.821)" class="st1 st4 st5">WEB</text>
		</g>
		<path id="SVGID_x5F_2_x5F_" class="st2" d="M446.1,253.6c0,64.7-52.4,117.1-117.1,117.1S212,318.3,212,253.6
			s52.4-117.1,117.1-117.1S446.1,189,446.1,253.6z"/>
		<text transform="matrix(1 0 0 1 -288.8152 -212.7748)" class="st4" style="font-size:23.3014px;">  </text>
		<text transform="matrix(1 0 0 1 -288.8152 -212.7748)" class="st4" style="font-size:23.3014px;"> </text>
		<g>
			<rect x="257.8" y="251.7" class="st1" width="142.3" height="3.9"/>
		</g>
		<path class="st1" d="M326.3,123.9c-5,0-5,7.8,0,7.8S331.4,123.9,326.3,123.9z"/>
		<path class="st1" d="M324.8,370.1c-5,0-5,7.8,0,7.8S329.8,370.1,324.8,370.1z"/>
	</g>
</g>
</svg>
